<svg height="464pt" viewBox="-48 0 464 464" width="464pt" xmlns="http://www.w3.org/2000/svg"><path d="m368 248c0 128.128906-82.398438 216-184 216s-184-87.871094-184-216 82.398438-248 184-248 184 119.871094 184 248zm0 0" fill="#ffd782"/><path d="m354.464844 158.3125c-7.824219-25.882812-19.28125-50.523438-34.03125-73.183594l-6.929688-5.128906-43.199218 32-43.199219-32-43.203125 32-43.199219-32-43.199219 32-43.199218-32-6.625 4.902344c-14.777344 22.699218-26.25 47.386718-34.078126 73.3125l40.726563-30.214844 43.199219 32 43.199218-32 43.203126 32 43.199218-32 43.199219 32 43.199219-32zm0 0" fill="#f98c96"/><path d="m354.464844 158.3125-40.960938-30.3125-43.199218 32-43.199219-32-43.203125 32-43.199219-32-43.199219 32-43.199218-32-40.800782 30.214844c-4.414062 14.4375-7.757812 29.179687-10.007812 44.105468l7.65625 5.679688 43.199218-32 43.199219 32 43.203125-32 43.199219 32 43.199219-32 43.199218 32 43.199219-32 43.25 32 7.742188-5.726562c-2.277344-14.882813-5.648438-29.574219-10.078125-43.960938zm0 0" fill="#dd3e46"/><path d="m356.753906 312-43.25-32-43.199218 32-43.199219-32-43.203125 32-43.199219-32-43.199219 32-43.199218-32-43.199219 32-4.480469-3.320312c3.390625 15.066406 8.253906 29.761718 14.527344 43.871093l33.175781-24.550781 43.199219 32 43.199218-32 43.203126 32 43.199218-32 43.199219 32 43.199219-32 33.265625 24.617188c6.292969-14.152344 11.175781-28.890626 14.574219-44zm0 0" fill="#dd3e46"/><g fill="#fff69a"><path d="m48 216h16v16h-16zm0 0"/><path d="m88 256h16v16h-16zm0 0"/><path d="m128 216h16v16h-16zm0 0"/><path d="m176 256h16v16h-16zm0 0"/><path d="m216 216h16v16h-16zm0 0"/><path d="m264 256h16v16h-16zm0 0"/><path d="m304 216h16v16h-16zm0 0"/><path d="m184 440v-16c.601562 0 60.839844-.695312 97.863281-45.121094l12.289063 10.242188c-41.921875 50.304687-107.382813 50.878906-110.152344 50.878906zm0 0"/><path d="m152 424h16v16h-16zm0 0"/><path d="m101.65625 77.65625-11.3125-11.3125c24.871094-25.261719 58.261719-40.355469 93.65625-42.34375v16c-31.097656 2.183594-60.351562 15.558594-82.34375 37.65625zm0 0"/><path d="m200 24h16v16h-16zm0 0"/></g></svg>