<svg height="512pt" viewBox="0 0 512 512" width="512pt" xmlns="http://www.w3.org/2000/svg"><path d="m76 271c-41.351562 0-76-33.648438-76-75s34.648438-75 76-75 75 33.648438 75 75-33.648438 75-75 75zm0 0" fill="#68544f"/><path d="m76 241c-24.933594 0-46-20.605469-46-45s21.066406-45 46-45c24.8125 0 45 20.1875 45 45s-20.1875 45-45 45zm0 0" fill="#ffbd86"/><path d="m436 271c-41.351562 0-75-33.648438-75-75s33.648438-75 75-75 76 33.648438 76 75-34.648438 75-76 75zm0 0" fill="#3e322e"/><path d="m436 241c-24.8125 0-45-20.1875-45-45s20.1875-45 45-45c24.933594 0 46 20.605469 46 45s-21.066406 45-46 45zm0 0" fill="#f6a96c"/><path d="m256 0c-129.902344 0-226 227.800781-226 346 0 109.5 76.601562 166 226 166s226-56.5 226-166c0-118.199219-96.097656-346-226-346zm0 0" fill="#725d57"/><path d="m482 346c0 109.5-76.601562 166-226 166v-512c129.902344 0 226 227.800781 226 346zm0 0" fill="#53433f"/><path d="m379 285.398438c7.800781 20.699218 12 41.402343 12 60.601562 0 13.199219-2.402344 24.898438-6.300781 36h-128.699219l-128.699219-.300781c-3.898437-10.800781-6.300781-22.5-6.300781-35.699219 0-19.199219 4.199219-39.902344 12-60.601562-7.800781-13.5-12-28.800782-12-44.398438 0-49.5 40.5-90 90-90 15.902344 0 31.199219 4.199219 45 12.300781 13.800781-8.101562 29.097656-12.300781 45-12.300781 49.5 0 90 40.5 90 90 0 15.597656-4.199219 30.898438-12 44.398438zm0 0" fill="#fed2a4"/><path d="m379 285.398438c7.800781 20.699218 12 41.402343 12 60.601562 0 13.199219-2.402344 24.898438-6.300781 36h-128.699219v-218.699219c13.800781-8.101562 29.097656-12.300781 45-12.300781 49.5 0 90 40.5 90 90 0 15.597656-4.199219 30.898438-12 44.398438zm0 0" fill="#ffbd86"/><path d="m241 316c0 8.285156-6.714844 15-15 15s-15-6.714844-15-15 6.714844-15 15-15 15 6.714844 15 15zm0 0" fill="#68544f"/><path d="m226 241c0 8.285156-6.714844 15-15 15s-15-6.714844-15-15 6.714844-15 15-15 15 6.714844 15 15zm0 0" fill="#68544f"/><path d="m316 241c0 8.285156-6.714844 15-15 15s-15-6.714844-15-15 6.714844-15 15-15 15 6.714844 15 15zm0 0" fill="#3e322e"/><path d="m301 316c0 8.285156-6.714844 15-15 15s-15-6.714844-15-15 6.714844-15 15-15 15 6.714844 15 15zm0 0" fill="#3e322e"/><path d="m384.699219 382c-18.300781 52.796875-72.898438 69-128.699219 69-56.101562 0-110.699219-16.199219-128.699219-69.300781 32.101563-14.101563 81.296875-20.699219 128.699219-20.699219 46.5 0 96.300781 6.597656 128.699219 21zm0 0" fill="#ffbd86"/><path d="m384.699219 382c-18.300781 52.796875-72.898438 69-128.699219 69v-90c46.5 0 96.300781 6.597656 128.699219 21zm0 0" fill="#f6a96c"/></svg>