<svg height="512.00102pt" viewBox="0 0 512.00102 512.00102" width="512.00102pt" xmlns="http://www.w3.org/2000/svg"><path d="m427.136719 234.871094h-120.128907l84.945313-84.941406-29.882813-29.878907-84.941406 84.941407v-120.128907h-42.257812v120.128907l-84.941406-84.941407-29.878907 29.878907 84.941407 84.941406h-120.128907v42.257812h120.128907l-84.941407 84.945313 29.878907 29.878906 84.941406-84.945313v120.128907h42.257812v-120.128907l84.941406 84.945313 29.882813-29.878906-84.945313-84.945313h120.128907zm0 0" fill="#fab659"/><path d="m295.085938 39.085938c0 21.589843-17.5 39.089843-39.085938 39.089843s-39.085938-17.5-39.085938-39.089843c0-21.585938 17.5-39.085938 39.085938-39.085938s39.085938 17.5 39.085938 39.085938zm0 0" fill="#fab659"/><path d="m237.515625 39.085938c0-18.019532 12.199219-33.183594 28.789063-37.703126-3.285157-.894531-6.738282-1.382812-10.304688-1.382812-21.585938 0-39.085938 17.5-39.085938 39.085938 0 21.589843 17.5 39.085937 39.085938 39.085937 3.566406 0 7.019531-.484375 10.300781-1.382813-16.585937-4.519531-28.785156-19.683593-28.785156-37.703124zm0 0" fill="#f59e18"/><path d="m437.015625 74.984375c-15.265625-15.265625-40.011719-15.265625-55.277344 0-15.265625 15.261719-15.265625 40.011719 0 55.277344 15.265625 15.261719 40.011719 15.261719 55.277344 0 15.265625-15.265625 15.265625-40.015625 0-55.277344zm0 0" fill="#ff8997"/><path d="m392.042969 95.585938c15.265625-15.265626 40.015625-15.265626 55.277343 0 .210938.210937.410157.429687.613282.640624-1.28125-7.777343-4.914063-15.246093-10.914063-21.246093-15.265625-15.265625-40.011719-15.265625-55.277343 0-15.054688 15.054687-15.25 39.324219-.609376 54.632812-1.984374-12.011719 1.648438-24.765625 10.910157-34.027343zm0 0" fill="#fc5c70"/><path d="m512 256c0 21.585938-17.5 39.085938-39.085938 39.085938-21.585937 0-39.085937-17.5-39.085937-39.085938s17.5-39.085938 39.085937-39.085938c21.585938 0 39.085938 17.5 39.085938 39.085938zm0 0" fill="#00c67f"/><path d="m437.015625 381.742188c-15.265625-15.261719-40.015625-15.261719-55.277344 0-15.265625 15.265624-15.265625 40.015624 0 55.277343 15.261719 15.265625 40.011719 15.265625 55.277344 0 15.261719-15.261719 15.261719-40.011719 0-55.277343zm0 0" fill="#34b5e1"/><path d="m402.347656 426.71875c-15.265625-15.265625-15.265625-40.011719 0-55.277344.210938-.210937.429688-.410156.644532-.613281-7.78125 1.28125-15.25 4.914063-21.25 10.914063-15.261719 15.265624-15.261719 40.011718 0 55.277343 15.054687 15.054688 39.324218 15.25 54.632812.613281-12.007812 1.980469-24.765625-1.652343-34.027344-10.914062zm0 0" fill="#0096d0"/><path d="m295.085938 472.914062c0 21.585938-17.5 39.085938-39.085938 39.085938s-39.085938-17.5-39.085938-39.085938c0-21.585937 17.5-39.085937 39.085938-39.085937s39.085938 17.5 39.085938 39.085937zm0 0" fill="#fab659"/><path d="m237.515625 472.914062c0-18.019531 12.199219-33.183593 28.789063-37.703124-3.285157-.898438-6.738282-1.382813-10.304688-1.382813-21.585938 0-39.085938 17.5-39.085938 39.085937 0 21.585938 17.5 39.085938 39.085938 39.085938 3.566406 0 7.019531-.488281 10.300781-1.382812-16.585937-4.519532-28.785156-19.683594-28.785156-37.703126zm0 0" fill="#f59e18"/><path d="m130.253906 381.742188c-15.261718-15.265626-40.011718-15.265626-55.277344 0-15.261718 15.261718-15.261718 40.011718 0 55.277343 15.265626 15.261719 40.015626 15.261719 55.277344 0 15.265625-15.265625 15.265625-40.015625 0-55.277343zm0 0" fill="#ff8997"/><path d="m130.257812 381.742188c-6-6-13.46875-9.628907-21.246093-10.914063.214843.207031.433593.402344.644531.613281 15.261719 15.265625 15.261719 40.011719 0 55.277344-9.265625 9.261719-22.019531 12.894531-34.03125 10.914062 15.308594 14.636719 39.582031 14.441407 54.632812-.613281 15.265626-15.265625 15.265626-40.011719 0-55.277343zm0 0" fill="#fc5c70"/><path d="m78.175781 256c0 21.585938-17.5 39.085938-39.089843 39.085938-21.585938 0-39.085938-17.5-39.085938-39.085938s17.5-39.085938 39.085938-39.085938c21.589843 0 39.089843 17.5 39.089843 39.085938zm0 0" fill="#00c67f"/><path d="m20.605469 256c0-18.019531 12.195312-33.183594 28.785156-37.703125-3.285156-.898437-6.734375-1.382813-10.304687-1.382813-21.585938 0-39.085938 17.5-39.085938 39.085938s17.5 39.085938 39.085938 39.085938c3.570312 0 7.019531-.484376 10.304687-1.382813-16.589844-4.519531-28.785156-19.683594-28.785156-37.703125zm0 0" fill="#00a45b"/><path d="m130.257812 74.980469c-15.265624-15.265625-40.015624-15.265625-55.277343 0-15.265625 15.265625-15.265625 40.011719 0 55.277343 15.261719 15.265626 40.011719 15.265626 55.277343 0 15.261719-15.265624 15.261719-40.011718 0-55.277343zm0 0" fill="#34b5e1"/><path d="m95.585938 119.957031c-15.265626-15.265625-15.265626-40.015625 0-55.277343.210937-.210938.429687-.410157.640624-.613282-7.777343 1.28125-15.246093 4.914063-21.246093 10.914063-15.265625 15.265625-15.265625 40.011719 0 55.277343 15.054687 15.054688 39.324219 15.25 54.632812.613282-12.011719 1.980468-24.765625-1.652344-34.027343-10.914063zm0 0" fill="#0096d0"/><g fill="#f59e18"><path d="m187.332031 157.453125-37.402343-37.40625-29.878907 29.878906 37.402344 37.40625c8.125-11.625 18.253906-21.753906 29.878906-29.878906zm0 0"/><path d="m362.070312 120.050781-37.402343 37.402344c11.625 8.125 21.753906 18.253906 29.878906 29.878906l37.402344-37.402343zm0 0"/><path d="m135.839844 256c0-7.207031.640625-14.265625 1.863281-21.128906h-52.839844v42.257812h52.839844c-1.222656-6.863281-1.863281-13.921875-1.863281-21.128906zm0 0"/><path d="m234.871094 137.703125c6.863281-1.222656 13.921875-1.863281 21.128906-1.863281s14.265625.640625 21.128906 1.863281v-52.839844h-42.257812zm0 0"/><path d="m324.667969 354.546875 37.40625 37.40625 29.878906-29.882813-37.40625-37.402343c-8.125 11.625-18.253906 21.753906-29.878906 29.878906zm0 0"/><path d="m427.136719 234.871094h-52.839844c1.222656 6.863281 1.863281 13.921875 1.863281 21.128906s-.636718 14.265625-1.863281 21.128906h52.839844zm0 0"/><path d="m277.128906 374.296875c-6.863281 1.222656-13.921875 1.863281-21.128906 1.863281s-14.265625-.636718-21.128906-1.863281v52.839844h42.257812zm0 0"/><path d="m187.332031 354.546875c-11.625-8.125-21.753906-18.25-29.878906-29.878906l-37.402344 37.40625 29.878907 29.878906zm0 0"/></g><path d="m471.941406 216.9375c-21.136718.519531-38.113281 17.800781-38.113281 39.0625s16.976563 38.546875 38.113281 39.0625c2.289063-12.679688 3.484375-25.734375 3.484375-39.0625s-1.195312-26.382812-3.484375-39.0625zm0 0" fill="#00a45b"/><path d="m256 62.328125c-106.960938 0-193.671875 86.710937-193.671875 193.671875 0 106.964844 86.710937 193.675781 193.671875 193.675781s193.671875-86.710937 193.671875-193.675781c0-106.960938-86.710937-193.671875-193.671875-193.671875zm0 344.738281c-83.429688 0-151.066406-67.636718-151.066406-151.066406s67.636718-151.066406 151.066406-151.066406 151.066406 67.636718 151.066406 151.066406-67.636718 151.066406-151.066406 151.066406zm0 0" fill="#f8e86a"/><path d="m320.441406 256c0 35.589844-28.851562 64.441406-64.441406 64.441406s-64.441406-28.851562-64.441406-64.441406 28.851562-64.441406 64.441406-64.441406 64.441406 28.851562 64.441406 64.441406zm0 0" fill="#f8e86a"/></svg>