<?xml version="1.0" encoding="utf-8"?>
<!-- Generator: Adobe Illustrator 22.0.0, SVG Export Plug-In . SVG Version: 6.00 Build 0)  -->
<svg version="1.1" id="Layer_1" xmlns="http://www.w3.org/2000/svg" xmlns:xlink="http://www.w3.org/1999/xlink" x="0px" y="0px"
	 viewBox="0 0 512 512" style="enable-background:new 0 0 512 512;" xml:space="preserve">
<style type="text/css">
	.st0{opacity:0.56;fill:#9B7C95;}
	.st1{fill:#FFFFFF;}
</style>
<path class="st0" d="M512,256c0,141.4-114.6,256-256,256S0,397.4,0,256S114.6,0,256,0S512,114.6,512,256z"/>
<path class="st1" d="M314.2,247.9c23.5-17.7,38.8-45.9,38.8-77.5c0-53.5-43.5-96.9-97-96.9c-53.5,0-96.9,43.5-96.9,96.9
	c0,31.6,15.2,59.8,38.7,77.5c-63,23.6-107.9,84.4-107.9,155.6h30c0-75,61.1-136.1,136.1-136.1c75,0,136.1,61.1,136.1,136.1h30
	C422.1,332.4,377.2,271.6,314.2,247.9z M189.1,170.4c0-36.9,30-66.9,66.9-66.9s66.9,30,66.9,66.9s-30,67-66.9,67
	S189.1,207.4,189.1,170.4z"/>
</svg>
